<?xml version="1.0" encoding="UTF-8" standalone="no"?>
<!DOCTYPE svg PUBLIC "-//W3C//DTD SVG 1.1//EN" "http://www.w3.org/Graphics/SVG/1.1/DTD/svg11.dtd">
<svg width="100%" height="100%" viewBox="0 0 1259 1137" version="1.1" xmlns="http://www.w3.org/2000/svg" xmlnsXlink="http://www.w3.org/1999/xlink" xmlSpace="preserve" xmlnsSerif="http://www.serif.com/" style="fill-rule:evenodd;clip-rule:evenodd;stroke-linecap:round;stroke-linejoin:round;stroke-miterlimit:1.5;">
    <g transform="matrix(1,0,0,1,-1545.83,-946.492)">
        <rect x="1555.38" y="956.019" width="1153.18" height="1044.29" style="fill:rgb(237,116,116);stroke:black;stroke-width:19.05px;"/>
        <g transform="matrix(0.966507,0,0,1.04453,-461.583,189.331)">
            <rect x="2862" y="734" width="418" height="999" style="fill:rgb(242,159,159);stroke:black;stroke-width:18.94px;"/>
        </g>
        <g transform="matrix(0.889339,0,0,1.04453,-989.911,189.331)">
            <rect x="2862" y="734" width="418" height="999" style="fill:rgb(194,81,81);stroke:black;stroke-width:19.64px;"/>
        </g>
        <g transform="matrix(0.992591,0,0,1,12.5888,0)">
            <path d="M1996.47,1141.88L1699.1,1141.88L1803.24,1368.12L1699.1,1446.8L1996.47,1446.8L1911.93,1244.65L1996.47,1141.88Z" style="fill:rgb(216,237,183);stroke:black;stroke-width:19.13px;"/>
        </g>
        <g transform="matrix(0.992591,0,0,1,573.219,0)">
            <path d="M1996.47,1141.88L1699.1,1141.88L1803.24,1368.12L1699.1,1446.8L1996.47,1446.8L1911.93,1244.65L1996.47,1141.88Z" style="fill:rgb(216,237,183);stroke:black;stroke-width:19.13px;"/>
        </g>
        <g transform="matrix(1.02482,0,0,0.758885,-54.5141,362.31)">
            <path d="M2075.24,1502.64L2133.33,1561.24L2196.1,1505.57L2194.22,1630.23L2133.33,1561.24L2078.67,1630.93L2075.24,1502.64Z" style="fill:none;stroke:black;stroke-width:21.13px;"/>
        </g>
        <path d="M2535.83,1698.65L2457.39,1698.65L2455.17,1755.23L2304.51,1813.36L2303.55,1698.65L1727.01,1698.65L1727.01,1763.75L1825.01,1762.53L1727.01,1855.2L1727.01,1936.74L1922.06,1936.74L1921.63,1818.74L2057.92,1936.74L2535.83,1936.74L2535.83,1698.65Z" style="fill:rgb(237,116,116);stroke:black;stroke-width:19.05px;"/>
        <path d="M1771.32,1817.7L1731.15,1863.87L1727.01,1936.74L1925.51,1936.74L1921.63,1818.74L2057.92,1936.74L2535.83,1936.74L2535.83,1817.7L2393.71,1817.7L2395,1875.7L2275,1876.7L2275.19,1817.7L2056.35,1817.7L2056.76,1863.87L1885.19,1742.7L1885.67,1817.7L1771.32,1817.7" style="stroke:black;stroke-width:19.17px;"/>
        <path d="M1753.66,1261.31L1806,1231L1831,1280L1864,1223L1898,1185L1926.92,1224.36L1994.26,1141.88L1699.1,1141.88L1753.66,1261.31Z" style="stroke:black;stroke-width:19.05px;"/>
        <path d="M2345.39,1329.37L2379,1280L2414,1336L2435,1312L2466,1370L2500.26,1315.19L2554.89,1446.8L2259.72,1446.8L2363.1,1368.12L2345.39,1329.37Z" style="stroke:black;stroke-width:19.05px;"/>
        <g transform="matrix(1,0,0,1,3.76147,0)">
            <path d="M1958,1294.34L2023,1446.8" style="fill:none;stroke:black;stroke-width:19.05px;"/>
        </g>
        <g transform="matrix(0.999811,-0.0194601,0.0194601,0.999811,-291.294,-67.8042)">
            <path d="M1958,1294.34L2023,1446.8" style="fill:none;stroke:black;stroke-width:19.05px;"/>
        </g>
        <path d="M2503,1250L2576,1162" style="fill:none;stroke:black;stroke-width:19.05px;"/>
        <path d="M2535.83,1340L2576,1430" style="fill:none;stroke:black;stroke-width:19.05px;"/>
        <path d="M2567,1349L2595,1407" style="fill:none;stroke:black;stroke-width:19.05px;"/>
        <path d="M2795,2073.29L1641.82,2073.29L1555.38,2000.31L2708.56,2000.31L2708.56,956.019L2795,1029L2795,2073.29L2708.56,2000.31" style="stroke:black;stroke-width:19.05px;"/>
        <g transform="matrix(1,0,0,1,-9,0)">
            <path d="M2576,1791L2576,1936.74" style="fill:none;stroke:black;stroke-width:19.05px;"/>
        </g>
        <g transform="matrix(1,0,0,0.78237,19,416.471)">
            <path d="M2576,1791L2576,1936.74" style="fill:none;stroke:black;stroke-width:21.22px;"/>
        </g>
        <g transform="matrix(6.12323e-17,1,-0.97985,5.99985e-17,3624.73,-909.5)">
            <path d="M2576,1791L2576,1936.74" style="fill:none;stroke:black;stroke-width:19.25px;"/>
        </g>
        <g transform="matrix(1,0,0,0.383353,-876.905,1194.28)">
            <path d="M2576,1791L2576,1936.74" style="fill:none;stroke:black;stroke-width:25.16px;"/>
        </g>
        <path d="M2094,956.019L2094,1080" style="fill:none;stroke:black;stroke-width:19.05px;"/>
        <path d="M1555.38,1566.79L1693,1566.79" style="fill:none;stroke:black;stroke-width:19.05px;"/>
        <path d="M1746,956.019L1746,1045" style="fill:none;stroke:black;stroke-width:19.05px;"/>
        <path d="M1746,1045C1746,1045 1553.34,1045 1555.38,1045" style="fill:none;stroke:black;stroke-width:19.05px;"/>
        <path d="M2708.56,1526L2617,1526" style="fill:none;stroke:black;stroke-width:19.05px;"/>
        <g transform="matrix(1,0,0,1,-240,-409)">
            <path d="M2708.56,1526L2617,1526" style="fill:none;stroke:black;stroke-width:19.05px;"/>
        </g>
        <g transform="matrix(1,0,0,1,-891.5,-48.2354)">
            <path d="M2708.56,1526L2617,1526" style="fill:none;stroke:black;stroke-width:19.05px;"/>
        </g>
        <path d="M2617,1526L2617,1630.93" style="fill:none;stroke:black;stroke-width:19.05px;"/>
        <path d="M1607,979L1583,1018.01" style="fill:none;stroke:black;stroke-width:19.05px;"/>
        <path d="M1660,979L1633,1018.01" style="fill:none;stroke:black;stroke-width:19.05px;"/>
        <path d="M1686,1018.01L1720,979" style="fill:none;stroke:black;stroke-width:19.05px;"/>
        <path d="M2377,1733L2377,1600L2337,1645" style="fill:none;stroke:black;stroke-width:19.05px;"/>
        <g transform="matrix(1,0,0,1,-0.505958,-8.01227)">
            <path d="M2617,998.505C2617,998.505 2618.17,1081.17 2617,1080" style="fill:none;stroke:black;stroke-width:19.17px;"/>
        </g>
        <g transform="matrix(6.12323e-17,-1,1,6.12323e-17,1577.5,3648.51)">
            <path d="M2617,998.505C2617,998.505 2618.17,1081.17 2617,1080" style="fill:none;stroke:black;stroke-width:19.17px;"/>
        </g>
    </g>
</svg>
